<svg id="Group_160213" data-name="Group 160213" xmlns="http://www.w3.org/2000/svg" xmlns:xlink="http://www.w3.org/1999/xlink" width="406.652" height="366.567" viewBox="0 0 406.652 366.567">
  <defs>
    <linearGradient id="linear-gradient" x1="1.147" y1="1.487" x2="0.454" y2="0.153" gradientUnits="objectBoundingBox">
      <stop offset="0" stop-color="#41b2ad"/>
      <stop offset="1" stop-color="#41b2ad" stop-opacity="0"/>
    </linearGradient>
    <linearGradient id="linear-gradient-2" x1="0.282" y1="0.781" x2="0.706" y2="0.297" gradientUnits="objectBoundingBox">
      <stop offset="0" stop-color="#f8fcfc" stop-opacity="0"/>
      <stop offset="1" stop-color="#fff"/>
    </linearGradient>
    <linearGradient id="linear-gradient-3" x1="1.847" y1="0.012" x2="0.017" y2="0.658" xlink:href="#linear-gradient"/>
    <linearGradient id="linear-gradient-4" x1="0.752" y1="0.686" x2="1.047" y2="1.089" xlink:href="#linear-gradient-2"/>
    <linearGradient id="linear-gradient-5" x1="0.716" y1="-0.108" x2="0.321" y2="0.978" xlink:href="#linear-gradient"/>
  </defs>
  <path id="Path_16913" data-name="Path 16913" d="M650.5,330.216,623.834,558.932,473.008,659.23,243.851,482.652v-4.069L472.007,653.75l146.952-99.288,26.677-228.717Z" transform="translate(-243.851 -292.663)" fill="url(#linear-gradient)"/>
  <path id="Path_16914" data-name="Path 16914" d="M243.851,476.309,472.007,651.476l146.954-99.284,26.671-228.72L389.624,290.389,365.452,435.316Z" transform="translate(-243.851 -290.389)" fill="url(#linear-gradient-2)"/>
  <path id="Path_16915" data-name="Path 16915" d="M365.138,455.287,599.345,563.264,476.51,649.723,265.725,487.893Z" transform="translate(-245.258 -300.996)" fill="url(#linear-gradient-3)"/>
  <path id="Path_16916" data-name="Path 16916" d="M627.32,552.192,373.811,435.316l24.172-144.927,256.007,33.082Z" transform="translate(-252.21 -290.389)" fill="url(#linear-gradient-4)"/>
  <path id="Path_16917" data-name="Path 16917" d="M620.361,540.107l-241.01-109.02,22.435-134.194,243.83,33.941Z" transform="translate(-252.567 -290.808)" fill="url(#linear-gradient-5)"/>
  <g id="Group_160212" data-name="Group 160212" transform="translate(168.444 32.769)" opacity="0.63">
    <g id="Group_160211" data-name="Group 160211" transform="translate(15.19 27.527)">
      <path id="Path_16918" data-name="Path 16918" d="M457.084,365.931l-16.976-3.5,1.232-7.6,45.415,8.673-1.273,8.284-18.81-3.879-6.408,40.768-9.542-2.72Z" transform="translate(-440.108 -354.831)" fill="#41b2ad"/>
      <path id="Path_16919" data-name="Path 16919" d="M516.741,424.557,508.6,375.6l-6.713,44.724-10.875-3.1,7.807-51.328,18.761,3.583,7.722,48.5,21.981-42.831,21.968,4.2L561.2,437.232l-13.221-3.769,6.855-48.408L531.613,428.8Z" transform="translate(-443.382 -355.543)" fill="#41b2ad"/>
    </g>
    <line id="Line_712" data-name="Line 712" y1="111.069" x2="17.657" transform="translate(20.635)" fill="none" stroke="#41b2ad" stroke-miterlimit="10" stroke-width="1"/>
    <line id="Line_713" data-name="Line 713" y1="113.133" x2="17.784" transform="translate(30.155 1.272)" fill="none" stroke="#41b2ad" stroke-miterlimit="10" stroke-width="1"/>
    <line id="Line_714" data-name="Line 714" y1="119.074" x2="18.112" transform="translate(57.538 4.927)" fill="none" stroke="#41b2ad" stroke-miterlimit="10" stroke-width="1"/>
    <line id="Line_715" data-name="Line 715" y1="121.431" x2="18.226" transform="translate(68.392 6.374)" fill="none" stroke="#41b2ad" stroke-miterlimit="10" stroke-width="1"/>
    <line id="Line_716" data-name="Line 716" y1="131.432" x2="18.61" transform="translate(114.389 12.491)" fill="none" stroke="#41b2ad" stroke-miterlimit="10" stroke-width="1"/>
    <line id="Line_717" data-name="Line 717" y1="134.297" x2="18.69" transform="translate(127.547 14.237)" fill="none" stroke="#41b2ad" stroke-miterlimit="10" stroke-width="1"/>
    <line id="Line_718" data-name="Line 718" x2="171.177" y2="32.691" transform="translate(7.432 25.812)" fill="none" stroke="#41b2ad" stroke-miterlimit="10" stroke-width="1"/>
    <line id="Line_719" data-name="Line 719" x2="171.067" y2="35.321" transform="translate(6.19 33.394)" fill="none" stroke="#41b2ad" stroke-miterlimit="10" stroke-width="1"/>
    <line id="Line_720" data-name="Line 720" x2="170.503" y2="48.576" transform="translate(0 71.192)" fill="none" stroke="#41b2ad" stroke-miterlimit="10" stroke-width="1"/>
    <path id="Path_16920" data-name="Path 16920" d="M609.855,462.748l5.245,5.78-6.5,5.9-5.245-5.78-7.359,6.668-5.021-26.855,26.243,7.609Z" transform="translate(-434.622 -333.326)" fill="#41b2ad"/>
  </g>
</svg>
