<svg id="Group_160210" data-name="Group 160210" xmlns="http://www.w3.org/2000/svg" xmlns:xlink="http://www.w3.org/1999/xlink" width="188.484" height="201.7" viewBox="0 0 188.484 201.7">
  <defs>
    <linearGradient id="linear-gradient" x1="0.5" y1="-0.044" x2="0.5" y2="0.824" gradientUnits="objectBoundingBox">
      <stop offset="0" stop-color="#41b2ad"/>
      <stop offset="1" stop-color="#41b2ad" stop-opacity="0"/>
    </linearGradient>
    <linearGradient id="linear-gradient-2" y1="-0.096" y2="0.713" xlink:href="#linear-gradient"/>
    <linearGradient id="linear-gradient-3" x1="0.5" y1="0.965" x2="0.5" y2="-1.548" gradientUnits="objectBoundingBox">
      <stop offset="0" stop-color="#f8fcfc" stop-opacity="0"/>
      <stop offset="1" stop-color="#fff"/>
    </linearGradient>
    <linearGradient id="linear-gradient-4" y1="-1.51" y2="1.533" xlink:href="#linear-gradient-3"/>
    <linearGradient id="linear-gradient-5" y1="-1.216" y2="1.59" xlink:href="#linear-gradient-3"/>
  </defs>
  <path id="Path_16908" data-name="Path 16908" d="M152.994,477.1V301l122.988-25.6,65.5,34.132V477.1Z" transform="translate(-152.994 -275.403)" fill="url(#linear-gradient)"/>
  <path id="Path_16909" data-name="Path 16909" d="M346.848,479.449V311.881L236.474,337.847v141.6Z" transform="translate(-158.364 -277.749)" fill="url(#linear-gradient-2)"/>
  <path id="Path_16910" data-name="Path 16910" d="M299.659,287.524l-116.941,25.1,1.175,128.542,17.918,8.781V320.736l110.171-26.789Z" transform="translate(-154.906 -276.182)" fill="url(#linear-gradient-3)"/>
  <g id="Group_160209" data-name="Group 160209" transform="translate(89.176 60.288)">
    <path id="Path_16911" data-name="Path 16911" d="M257.01,354.244l-8.709,1.765v-4.982l22.094-4.475v4.981l-8.708,1.765v25.166l-4.677.947Z" transform="translate(-248.301 -340.267)" fill="url(#linear-gradient-4)"/>
    <path id="Path_16912" data-name="Path 16912" d="M286.76,373.314l-6.064-24.5v25.724l-4.645.94V345.336l7.87-1.594,5.71,24.233,5.773-26.559,7.805-1.58v30.147l-4.645.94V345.2l-6.031,26.946Z" transform="translate(-250.086 -339.835)" fill="url(#linear-gradient-5)"/>
  </g>
</svg>
