<svg id="Group_160187" data-name="Group 160187" xmlns="http://www.w3.org/2000/svg" xmlns:xlink="http://www.w3.org/1999/xlink" width="420.894" height="768.423" viewBox="0 0 420.894 768.423">
  <defs>
    <linearGradient id="linear-gradient" x1="0.5" y1="0.455" x2="0.498" y2="0.915" gradientUnits="objectBoundingBox">
      <stop offset="0" stop-color="#41b2ad"/>
      <stop offset="1" stop-color="#41b2ad" stop-opacity="0"/>
    </linearGradient>
    <linearGradient id="linear-gradient-2" x1="0.762" y1="0.9" x2="-0.185" y2="-0.545" gradientUnits="objectBoundingBox">
      <stop offset="0" stop-color="#41b2ad"/>
      <stop offset="1" stop-color="#fff"/>
    </linearGradient>
    <linearGradient id="linear-gradient-3" x1="0.825" y1="0.5" x2="-1.169" y2="0.5" xlink:href="#linear-gradient-2"/>
    <linearGradient id="linear-gradient-4" x1="0.276" y1="0.619" x2="0.813" y2="0.157" gradientUnits="objectBoundingBox">
      <stop offset="0" stop-color="#fbd2ae"/>
      <stop offset="1" stop-color="#e4a081"/>
    </linearGradient>
    <linearGradient id="linear-gradient-5" x1="0.782" y1="0.958" x2="-0.076" y2="-0.992" gradientUnits="objectBoundingBox">
      <stop offset="0.029" stop-color="#41b2ad" stop-opacity="0"/>
      <stop offset="0.111" stop-color="#41b2ad"/>
      <stop offset="1" stop-color="#fff"/>
    </linearGradient>
    <linearGradient id="linear-gradient-6" x1="0.478" y1="0.06" x2="0.782" y2="0.9" xlink:href="#linear-gradient"/>
    <linearGradient id="linear-gradient-7" x1="0.487" y1="0.11" x2="0.635" y2="0.807" xlink:href="#linear-gradient"/>
    <linearGradient id="linear-gradient-8" x1="0.264" y1="1.093" x2="0" y2="1.55" gradientUnits="objectBoundingBox">
      <stop offset="0" stop-color="#44b7b1"/>
      <stop offset="1" stop-color="#fff"/>
    </linearGradient>
    <linearGradient id="linear-gradient-9" x1="0.5" y1="2.086" x2="0.5" y2="-0.84" xlink:href="#linear-gradient"/>
    <linearGradient id="linear-gradient-10" x1="0.646" y1="0" x2="-0.21" y2="1.558" xlink:href="#linear-gradient-4"/>
    <linearGradient id="linear-gradient-11" x1="-1.161" y1="3.296" x2="1.762" y2="-0.853" xlink:href="#linear-gradient-4"/>
    <linearGradient id="linear-gradient-12" x1="0" y1="1.817" x2="1.449" y2="-0.209" xlink:href="#linear-gradient-4"/>
    <linearGradient id="linear-gradient-13" x1="2.646" y1="1.333" x2="-0.912" y2="0.048" xlink:href="#linear-gradient"/>
    <linearGradient id="linear-gradient-14" x1="-0.496" y1="0.941" x2="1.22" y2="0.276" xlink:href="#linear-gradient"/>
    <linearGradient id="linear-gradient-15" x1="2.439" y1="1.795" x2="2.924" y2="2.124" xlink:href="#linear-gradient-2"/>
    <linearGradient id="linear-gradient-16" x1="-0.362" y1="0.755" x2="3.032" y2="-0.189" xlink:href="#linear-gradient-4"/>
    <linearGradient id="linear-gradient-17" x1="-0.261" y1="0.5" x2="1.917" y2="0.5" xlink:href="#linear-gradient-2"/>
    <linearGradient id="linear-gradient-18" x1="0.768" y1="0.531" x2="-0.687" y2="0.319" xlink:href="#linear-gradient-4"/>
    <linearGradient id="linear-gradient-19" x1="0.5" y1="1.253" x2="0.5" y2="0.636" xlink:href="#linear-gradient-2"/>
    <linearGradient id="linear-gradient-20" x1="-0.544" y1="-0.509" x2="0.496" y2="0.475" xlink:href="#linear-gradient-2"/>
    <linearGradient id="linear-gradient-21" x1="-0.398" y1="1.367" x2="0.439" y2="0.577" xlink:href="#linear-gradient-2"/>
    <linearGradient id="linear-gradient-22" x1="1.201" y1="0.898" x2="0.542" y2="0.277" xlink:href="#linear-gradient-2"/>
    <linearGradient id="linear-gradient-23" x1="0.5" y1="6.981" x2="0.5" y2="0.363" xlink:href="#linear-gradient-2"/>
    <linearGradient id="linear-gradient-24" x1="-5.688" y1="-4.939" x2="-7.07" y2="-5.918" xlink:href="#linear-gradient-4"/>
  </defs>
  <g id="Group_160184" data-name="Group 160184" transform="translate(27.205 430.955)">
    <rect id="Rectangle_140051" data-name="Rectangle 140051" width="222.617" height="203.356" transform="translate(0 92.085)" fill="url(#linear-gradient)"/>
    <ellipse id="Ellipse_224" data-name="Ellipse 224" cx="158.368" cy="91.989" rx="158.368" ry="91.989" transform="translate(0.157 0.809)" fill="url(#linear-gradient-2)"/>
    <ellipse id="Ellipse_225" data-name="Ellipse 225" cx="134.998" cy="71.094" rx="134.998" ry="71.094" transform="translate(23.527)" fill="url(#linear-gradient-3)"/>
  </g>
  <g id="Group_160185" data-name="Group 160185">
    <path id="Path_16842" data-name="Path 16842" d="M553.485,433.234l-46.051,30.007,12.926,26.8,47-40.726Z" transform="translate(-160.547 -211.374)" fill="url(#linear-gradient-4)"/>
    <path id="Path_16843" data-name="Path 16843" d="M503.75,678.927C505.8,644.361,408.959,563.9,408.959,563.9L414,517.214s19.082,21.251,37.056,23.481c30.667,3.805,69.207-36.684,69.207-36.684l-24.275-57.378-32.471,22.384s-34.8-68.224-49.468-96.773c-25.316-49.28-214.172-2.856-227.29,10.67C145.752,425.2,146.743,471.146,133.1,582.538c-6.391,52.189,112.6,126.551,112.6,126.551l11.9-60.906s17.55-21.365,22.582-34.205L195.943,583.07l8.826-87.639-17.209,19.5s-9.951,135.279,13.575,177.307c14.165,25.3,67.5,76.153,67.5,76.153l67.9,205.257L484.291,936.31S499.49,750.907,503.75,678.927Z" transform="translate(-132.856 -205.228)" fill="url(#linear-gradient-5)"/>
    <path id="Path_16844" data-name="Path 16844" d="M198.231,693.287l52.2,39.8-.722-33.637,6.3-24.816,15.363-18.514,46.48,1.97L353.091,691.2,287.345,705.23l40.867,256.324L273.468,791.018S197.871,723.149,198.231,693.287Z" transform="translate(-137.689 -227.851)" fill="url(#linear-gradient-6)"/>
    <path id="Path_16845" data-name="Path 16845" d="M426.841,635.415l30.877,46.109,46.336,274.221s11.2-145.909,19.459-257.383c2.863-38.651-53.074-83.076-67.366-94.259Z" transform="translate(-154.589 -224.006)" fill="url(#linear-gradient-7)"/>
    <path id="Path_16846" data-name="Path 16846" d="M151.984,432.105s68.344,39.594,156.042,51.986L424.4,375.928s-17.154-44.4-58.838-44.4l-18.774-.734s25.98-106.919-36.347-130.987c-85.7-33.1-113.966,75.668-75.777,131.722,0,0-47.589,31.122-56.653,41.939C163.26,391.076,151.984,432.105,151.984,432.105Z" transform="translate(-134.27 -193.663)" fill="url(#linear-gradient-8)"/>
    <path id="Path_16847" data-name="Path 16847" d="M301.744,609.441l103.024-55.671-79.988,30.715-79.987-30.715Z" transform="translate(-141.131 -220.285)" fill="url(#linear-gradient-9)"/>
    <path id="Path_16848" data-name="Path 16848" d="M312.79,224.75c-39.528,6.446-53.507,67.916-47.858,82.5,6.3,16.258,39.779,35.8,57.47,32.022,17.473-3.733,38.006-24.6,40.079-42.18C364.9,276.626,352.317,218.3,312.79,224.75Z" transform="translate(-142.531 -195.924)" fill="url(#linear-gradient-10)"/>
    <path id="Path_16849" data-name="Path 16849" d="M286.59,280.467c2.893-7.7,32.637-11.869,32.637-11.869l.822,35.9S282.292,291.913,286.59,280.467Z" transform="translate(-144.196 -199.202)" fill="url(#linear-gradient-11)"/>
    <path id="Path_16850" data-name="Path 16850" d="M358.438,261.459c-.1-4.953-20.854,2.224-20.854,2.224s2.392,23.043,3.87,37.778c.608,6.061-11.908,6.341-11.908,6.341l16.207,6.862.193-34.4S358.561,267.484,358.438,261.459Z" transform="translate(-147.397 -198.546)" fill="url(#linear-gradient-12)"/>
    <path id="Path_16851" data-name="Path 16851" d="M436.288,524.237,434.316,445.1l15.458,46.468,22.79-10.957.78,67.106S452.124,544.333,436.288,524.237Z" transform="translate(-155.142 -212.251)" fill="url(#linear-gradient-13)"/>
    <path id="Path_16852" data-name="Path 16852" d="M212.058,496.96,185.817,598.312l92.662,25.917-62.872-36.007Z" transform="translate(-136.771 -216.085)" fill="url(#linear-gradient-14)"/>
    <path id="Path_16853" data-name="Path 16853" d="M277.584,645.278s-18.552,16.117-23.441,38.546c-4.817,22.105-6.8,48.464.1,48.464,6.766,0-.945-26.038,3.582-43.079S283.708,676.787,277.584,645.278Z" transform="translate(-141.499 -227.05)" fill="url(#linear-gradient-15)"/>
    <path id="Path_16949" data-name="Path 16949" d="M535.362,443.31l7.091-10.35,14.052-.95,16.908,10.784,2.485,6.745,2.574-4.379,5.035,2.259-1.42,12.781-5.018,7.375-4.615-3.55,3.39-7.824-2.369-1.14-7.589,8.121-14.645-8.121-5.325.533-5.858-5.192,7.322-11.982L541.4,446.15Z" transform="translate(-162.612 -211.283)" fill="url(#linear-gradient-16)"/>
  </g>
  <ellipse id="Ellipse_226" data-name="Ellipse 226" cx="57.13" cy="35.571" rx="57.13" ry="35.571" transform="translate(137.39 394.623)" fill="url(#linear-gradient-17)"/>
  <path id="Path_16854" data-name="Path 16854" d="M296.828,637.253l35.544-11.682,27.5.787v4.983l-21.727,2.623-16.784,11.015Z" transform="translate(-144.978 -225.593)" fill="url(#linear-gradient-18)"/>
  <g id="Group_160186" data-name="Group 160186" transform="translate(86.343 173.894)">
    <path id="Path_16855" data-name="Path 16855" d="M327.408,644.683l11-169.953h8.762l10.014,169.405Z" transform="translate(-233.581 -388.335)" fill="url(#linear-gradient-19)"/>
    <path id="Path_16856" data-name="Path 16856" d="M343.639,497.547l56.037,74.3L362.11,486.7l-18.242-9.92Z" transform="translate(-234.781 -388.487)" fill="url(#linear-gradient-20)"/>
    <path id="Path_16857" data-name="Path 16857" d="M363.115,461.9l46.767-80.458-63.923,67.635-2.073,20.661Z" transform="translate(-234.8 -381.438)" fill="url(#linear-gradient-21)"/>
    <path id="Path_16858" data-name="Path 16858" d="M316.031,483.553l-89.94-23.9,93.023,2.709,16.064,13.158Z" transform="translate(-226.091 -387.22)" fill="url(#linear-gradient-22)"/>
    <circle id="Ellipse_227" data-name="Ellipse 227" cx="10.84" cy="10.84" r="10.84" transform="translate(98.247 77.456)" fill="url(#linear-gradient-23)"/>
  </g>
  <path id="Path_16859" data-name="Path 16859" d="M285.246,635l9.295,1.87,29.453-3.405,22.132,11.748,14.413,9.256-3.005,4.177-16.943-7.8-12.3-4.659,11.392,8.318,16.2,8.818-5.388,9.551-10.8,3.906-6.7,2.152-18.681-8.751-14.484,0-14.095-2.824-21.166-5.737C272.909,648.576,285.246,635,285.246,635Z" transform="translate(-142.593 -226.176)" fill="url(#linear-gradient-24)"/>
</svg>
