<svg xmlns="http://www.w3.org/2000/svg" xmlns:xlink="http://www.w3.org/1999/xlink" width="146.945" height="693.666" viewBox="0 0 146.945 693.666">
  <defs>
    <linearGradient id="linear-gradient" x1="1.22" y1="-0.903" x2="0.453" y2="0.591" gradientUnits="objectBoundingBox">
      <stop offset="0" stop-color="#fff"/>
      <stop offset="1" stop-color="#fff" stop-opacity="0"/>
    </linearGradient>
    <linearGradient id="linear-gradient-2" x1="0" y1="1.843" x2="0.485" y2="0.54" xlink:href="#linear-gradient"/>
    <linearGradient id="linear-gradient-3" x1="0.5" y1="1.687" x2="0.5" y2="-0.484" xlink:href="#linear-gradient"/>
  </defs>
  <g id="Group_160173" data-name="Group 160173" transform="translate(-96.67 -214.58)">
    <path id="Path_16802" data-name="Path 16802" d="M235.362,704.371,102.3,603.36V763.824L235.362,894.411Z" transform="translate(0.183 13.835)" fill="url(#linear-gradient)"/>
    <path id="Path_16803" data-name="Path 16803" d="M235.362,241.36,102.3,214.58V375.044L235.362,431.4Z" transform="translate(0.183)" fill="url(#linear-gradient-2)"/>
    <path id="Path_16804" data-name="Path 16804" d="M235.362,472.463,102.3,408.63V569.094L235.362,662.5Z" transform="translate(0.183 6.905)" fill="url(#linear-gradient-3)"/>
    <path id="Path_16805" data-name="Path 16805" d="M240.856,508.1V466.246l-80.2-37.426" transform="translate(2.259 7.624)" fill="none" stroke="#fff" stroke-miterlimit="10" stroke-width="1"/>
    <path id="Path_16806" data-name="Path 16806" d="M97.17,536.83v31.554l65.822,46.964" transform="translate(0 11.468)" fill="none" stroke="#fff" stroke-miterlimit="10" stroke-width="1"/>
    <path id="Path_16807" data-name="Path 16807" d="M175.211,501.884c0-8.015-5.955-18.04-13.183-22.327s-12.748-1.263-12.748,6.493,5.654,17.6,12.748,22.058S175.211,509.9,175.211,501.884Z" transform="translate(1.854 9.36)" fill="none" stroke="#fff" stroke-miterlimit="10" stroke-width="4" opacity="0.41"/>
    <path id="Path_16808" data-name="Path 16808" d="M190.992,511.836c0-17.325-13.007-38.8-28.489-47.637-14.892-8.523-26.563-2.071-26.563,14.053s11.671,36.815,26.563,46.488C177.985,534.764,190.992,529.172,190.992,511.836Z" transform="translate(1.38 8.749)" fill="none" stroke="#fff" stroke-miterlimit="10" stroke-width="11" opacity="0.41"/>
  </g>
</svg>
